<svg version="1.1" id="Layer_1" xmlns="http://www.w3.org/2000/svg" xmlns:xlink="http://www.w3.org/1999/xlink" x="0px" y="0px"
	 width="100%" viewBox="0 0 784 146" enable-background="new 0 0 784 146" xml:space="preserve">
<path fill="#000000" opacity="1.000000" stroke="none" 
	d="
M715.000000,147.000000 
	C694.645752,147.000000 674.291565,147.000000 653.133545,146.754990 
	C655.711304,143.452469 660.389160,141.446014 660.916748,135.592712 
	C660.996948,130.338638 660.962524,125.504425 661.012329,120.671089 
	C661.276001,95.097176 661.560913,69.523491 661.913574,43.489136 
	C661.992615,35.633961 662.062256,28.238441 661.956604,20.845421 
	C661.928223,18.861591 661.366150,16.885387 661.034668,14.702728 
	C661.020325,14.499773 660.875916,14.119341 660.907959,13.825428 
	C660.633850,13.305213 660.327820,13.078910 660.020508,12.491073 
	C658.518250,10.373513 656.995300,8.635657 655.520508,6.857859 
	C651.841248,2.422604 647.039551,5.425849 642.772766,4.941809 
	C638.265076,4.430428 633.885498,8.065587 632.613647,13.058182 
	C632.161438,27.808552 632.089722,42.330284 632.060974,56.852108 
	C632.060242,57.224422 632.531006,57.597672 632.777527,58.067451 
	C632.773132,58.164413 632.964844,58.194813 632.969055,58.365189 
	C632.973267,58.535561 632.930847,58.873768 632.573975,58.908531 
	C631.906433,58.871109 631.446350,58.906174 631.306519,58.711388 
	C624.013306,48.552578 613.622620,44.970516 601.684509,45.011963 
	C587.609375,45.060822 575.792297,49.826298 566.939270,61.395676 
	C560.396729,69.945656 556.762695,79.348274 556.067993,90.421173 
	C555.651123,92.876251 554.659363,95.084084 555.108032,96.944542 
	C557.140747,105.373558 559.580139,113.704521 561.905151,122.063385 
	C561.937134,122.055992 561.898743,122.002670 561.910278,122.330139 
	C562.239502,123.144562 562.557190,123.631523 562.972473,124.345016 
	C563.265381,124.863640 563.536987,125.034752 563.916077,125.400391 
	C564.275452,126.186859 564.603577,126.657814 565.012634,127.355957 
	C565.286682,127.862694 565.549622,128.036835 565.904053,128.411713 
	C566.227295,129.183502 566.528809,129.649139 566.982300,130.411423 
	C569.380310,132.823074 571.626221,134.938080 574.007568,137.343979 
	C574.750122,137.799591 575.357117,137.964294 576.038940,138.351410 
	C576.300293,138.855591 576.561951,139.010468 577.026123,139.329163 
	C577.751282,139.789993 578.349060,139.960129 579.103638,140.421097 
	C580.796082,141.494217 582.331665,142.276520 584.032104,143.376251 
	C585.135681,143.827881 586.074585,143.962082 586.983765,144.076569 
	C586.954102,144.056839 586.915405,144.116623 587.082642,144.422852 
	C588.170898,144.862152 589.091797,144.995209 590.021606,145.074463 
	C590.030518,145.020676 589.922974,145.002670 590.095093,145.351120 
	C590.519165,145.758224 590.771118,145.816864 591.041016,146.405609 
	C590.705933,146.957153 590.352966,146.978577 590.000000,147.000000 
	C571.645752,147.000000 553.291565,147.000000 534.140137,146.759155 
	C536.180298,143.052078 539.017578,139.585846 541.930237,135.644073 
	C541.950684,116.449974 541.895813,97.731407 541.895508,78.615021 
	C541.627747,76.968979 541.218933,75.735916 540.996948,74.470093 
	C539.429626,65.534142 534.435669,58.574268 527.537903,53.227985 
	C516.679626,44.812031 503.388702,44.795475 490.763184,45.485516 
	C481.848145,45.972763 472.985138,49.482426 464.348663,52.385689 
	C456.447601,55.041725 453.970520,62.732899 458.117096,69.373421 
	C461.664886,75.054932 468.035400,77.068924 474.003204,73.940521 
	C480.915436,70.317039 488.177094,67.273048 495.915527,68.179413 
	C506.903503,69.466362 512.877930,73.239990 512.491760,85.005035 
	C503.997620,85.005035 495.489288,85.015671 486.981049,85.001984 
	C478.831940,84.988876 471.048279,86.701538 464.139587,91.013885 
	C456.188354,95.976997 450.843933,102.663589 451.961121,112.877068 
	C452.230865,115.343407 451.799103,117.884262 452.041412,120.356407 
	C452.331085,123.311882 452.406006,126.506142 453.618805,129.110382 
	C456.612701,135.538986 461.622986,140.127747 468.158112,143.116714 
	C469.982452,143.951111 471.397308,145.680954 473.000000,147.000000 
	C451.312439,147.000000 429.624878,147.000000 407.134949,146.710083 
	C407.731995,145.677887 409.093964,144.851471 410.537415,144.207932 
	C416.708191,141.456833 423.282806,139.371140 428.964172,135.841919 
	C433.211914,133.203232 437.483978,129.301712 439.638855,124.925346 
	C442.337646,119.444359 438.843719,112.589439 433.550385,109.168907 
	C428.508820,105.911049 421.211090,106.054260 416.272614,109.123528 
	C411.399323,112.152275 406.110260,114.512009 400.607849,117.239746 
	C394.791290,117.530334 389.343475,118.196457 383.955017,117.872948 
	C370.984344,117.094231 361.734344,110.027016 356.093292,98.796562 
	C349.073669,84.821541 348.735931,70.243233 355.093231,55.843430 
	C359.330353,46.245972 366.337738,38.940285 376.283661,35.465370 
	C386.365082,31.943129 396.746552,31.959320 407.004578,36.343582 
	C407.762634,36.785381 408.382294,36.932358 408.964935,37.074623 
	C408.927948,37.069916 408.918732,37.143917 409.084961,37.448715 
	C411.141266,38.992352 413.135315,40.099335 414.903168,41.493153 
	C422.053772,47.130749 428.297974,45.443493 434.051575,41.376759 
	C439.860016,37.271305 441.066010,31.471849 438.091187,24.635338 
	C438.056763,24.419622 437.941132,23.998323 437.979675,23.724167 
	C437.725098,23.255386 437.432007,23.060762 436.972290,22.572155 
	C432.913452,19.502720 429.021271,16.727272 424.960724,13.627539 
	C418.862305,11.258303 412.932190,9.213353 406.675720,7.003687 
	C389.667633,2.763437 373.279633,4.170052 357.788513,11.183348 
	C343.842834,17.496990 333.314697,27.881454 325.981537,41.572376 
	C317.190430,57.985184 315.307526,75.711357 319.395233,93.064453 
	C325.508881,119.018173 341.430695,137.227219 368.297913,144.206207 
	C369.680542,144.565369 370.772644,146.043076 372.000000,147.000000 
	C248.369690,147.000000 124.739372,147.000000 1.054531,147.000000 
	C1.054531,98.384048 1.054531,49.768013 1.054531,1.075991 
	C262.333313,1.075991 523.666687,1.075991 784.962769,1.075991 
	C784.962769,49.744946 784.962769,98.372490 784.962769,147.000000 
	C771.596130,147.000000 758.266724,147.000000 744.136108,146.716873 
	C745.064087,145.622391 746.724426,144.581680 748.534180,144.039398 
	C756.334900,141.701935 763.059814,137.415314 768.646118,131.742508 
	C776.091064,124.182365 780.515198,115.150146 782.249512,104.296883 
	C785.065369,86.675255 779.748901,71.912903 767.920898,59.621910 
	C758.840393,50.185966 746.833862,45.855602 733.659790,44.985214 
	C717.961853,43.948078 703.333191,47.243202 691.701782,58.029564 
	C678.510132,70.262833 673.010132,85.818031 676.016296,103.936890 
	C679.602051,125.548744 692.475037,138.766418 713.068115,145.081543 
	C713.835999,145.317017 714.361511,146.342606 715.000000,147.000000 
M59.053722,127.591507 
	C73.250465,131.836746 87.348412,136.620361 102.362236,137.000519 
	C110.531616,137.207367 118.711494,137.064240 126.885338,136.968170 
	C128.286591,136.951691 144.844147,136.805817 146.161194,137.057205 
	C148.061371,137.419891 149.973175,137.898529 151.891754,137.959702 
	C165.923950,138.407181 179.710510,136.421417 193.231415,132.924911 
	C217.923569,126.539597 241.759125,118.315392 258.295074,97.146667 
	C265.019104,88.538811 268.271057,78.256882 267.724304,67.549599 
	C267.294006,59.122448 264.636566,51.064816 260.409821,43.187775 
	C253.883102,31.024538 244.189514,23.034008 231.779602,19.365673 
	C220.143234,15.926002 208.028885,17.664244 196.598038,22.726347 
	C182.407562,29.010553 170.521606,38.345833 160.648468,50.070534 
	C153.103897,59.029987 146.440506,68.733482 139.435394,78.143417 
	C138.095261,79.943604 136.989273,81.918114 135.806595,83.763313 
	C134.673080,81.717583 133.746552,79.900581 132.690323,78.162376 
	C125.160988,65.771523 115.829926,54.905388 105.434402,44.799305 
	C95.393242,35.037697 84.667618,26.629156 71.367058,21.687881 
	C57.985405,16.716480 44.974117,16.234123 31.806833,22.517300 
	C17.985859,29.112410 10.440384,40.480541 6.773386,54.681316 
	C1.530910,74.983269 7.061625,92.177017 22.525728,106.363731 
	C32.989719,115.963348 45.423252,121.984589 59.053722,127.591507 
z"/>
<path fill="#F17154" opacity="1.000000" stroke="none" 
	d="
M565.882324,128.105591 
	C565.549622,128.036835 565.286682,127.862694 564.952820,127.067764 
	C564.502930,126.063225 564.193848,125.574051 563.884766,125.084885 
	C563.536987,125.034752 563.265381,124.863640 562.929199,124.052856 
	C562.491882,123.023651 562.195312,122.513161 561.898743,122.002670 
	C561.898743,122.002670 561.937134,122.055992 561.981812,121.702652 
	C562.912109,120.451530 563.662598,119.019379 564.708374,118.754776 
	C568.032959,117.913589 569.808472,116.186890 570.283752,112.665131 
	C570.480225,111.208931 571.879089,109.829140 572.936584,108.589943 
	C577.338562,103.431656 577.622253,98.567856 573.662231,94.261017 
	C569.818848,90.081055 562.862305,89.581245 557.986877,93.378151 
	C557.359131,92.224365 556.757751,91.119171 556.156372,90.013977 
	C556.762695,79.348274 560.396729,69.945656 566.939270,61.395676 
	C575.792297,49.826298 587.609375,45.060822 601.684509,45.011963 
	C613.622620,44.970516 624.013306,48.552578 631.306519,58.711388 
	C631.446350,58.906174 631.906433,58.871109 632.657471,58.838554 
	C633.218506,58.516808 633.174194,58.337143 632.964844,58.194813 
	C632.964844,58.194813 632.773132,58.164413 632.820679,57.604568 
	C632.967407,43.000473 633.066589,28.956224 633.225952,14.819450 
	C633.370667,14.510463 633.344421,14.303953 633.150391,13.788749 
	C633.062317,13.256587 633.031067,13.043069 632.999878,12.829552 
	C633.885498,8.065587 638.265076,4.430428 642.772766,4.941809 
	C647.039551,5.425849 651.841248,2.422604 655.520508,6.857859 
	C656.995300,8.635657 658.518250,10.373513 660.144409,12.714331 
	C660.471619,13.572523 660.673767,13.845922 660.875916,14.119331 
	C660.875916,14.119341 661.020325,14.499773 660.980408,15.174253 
	C660.988281,25.219700 661.036072,34.590664 660.861450,44.314110 
	C660.430054,46.129375 660.041199,47.591873 660.038879,49.054977 
	C659.996094,76.430901 659.984802,103.806915 660.028931,131.182816 
	C660.031555,132.793320 660.558289,134.402954 660.841064,136.013000 
	C660.389160,141.446014 655.711304,143.452469 652.664856,146.754990 
	C649.638733,147.000000 646.277405,147.000000 642.791260,146.749115 
	C637.445129,143.569733 633.946533,139.293045 632.891724,134.262436 
	C627.632019,137.529877 622.333679,140.821320 616.996216,143.708008 
	C617.132263,140.115891 617.719666,136.884171 617.382385,133.751984 
	C616.918945,129.446976 615.755493,125.217331 615.076416,120.627213 
	C616.764771,119.784180 618.426147,119.525963 619.748230,118.714874 
	C633.542664,110.252350 635.790649,91.758987 627.265503,78.999184 
	C619.833557,67.875694 605.799133,67.065933 596.684753,73.214409 
	C588.414307,78.793571 585.832275,87.409645 585.540100,96.933685 
	C584.033386,97.528320 582.196655,97.935593 581.819336,98.908691 
	C581.420044,99.938583 582.409363,101.506866 582.792175,102.839981 
	C583.888245,102.513588 584.984314,102.187210 586.092773,101.869843 
	C586.105225,101.878853 586.122131,101.904465 586.110840,102.228912 
	C586.351074,103.364456 586.602539,104.175552 587.010986,105.322571 
	C589.482788,109.424522 591.797729,113.190529 593.775513,117.088684 
	C592.298828,120.019997 590.059631,122.893288 590.242310,125.603355 
	C590.657349,131.761230 592.262939,137.838882 593.511536,144.640656 
	C593.353455,144.748917 592.298706,145.471390 591.163330,146.119644 
	C591.082581,146.045410 590.923584,145.894287 590.765564,145.734650 
	C590.384827,145.377686 590.156616,145.186905 589.922974,145.002670 
	C589.922974,145.002670 590.030518,145.020676 589.752380,144.871140 
	C588.621277,144.519943 587.768372,144.318283 586.915405,144.116608 
	C586.915405,144.116623 586.954102,144.056839 586.707642,143.879028 
	C585.596619,143.487091 584.731934,143.272964 583.867310,143.058838 
	C582.331665,142.276520 580.796082,141.494217 578.889099,140.218033 
	C577.978088,139.495590 577.438354,139.267029 576.898682,139.038452 
	C576.561951,139.010468 576.300293,138.855591 575.817749,138.148712 
	C574.971802,137.500107 574.421997,137.276581 573.872131,137.053070 
	C571.626221,134.938080 569.380310,132.823074 566.949585,130.127716 
	C566.470581,129.066757 566.176453,128.586182 565.882324,128.105591 
z"/>
<path fill="#F17255" opacity="1.000000" stroke="none" 
	d="
M715.468628,147.000000 
	C714.361511,146.342606 713.835999,145.317017 713.068115,145.081543 
	C692.475037,138.766418 679.602051,125.548744 676.016296,103.936890 
	C673.010132,85.818031 678.510132,70.262833 691.701782,58.029564 
	C703.333191,47.243202 717.961853,43.948078 733.659790,44.985214 
	C746.833862,45.855602 758.840393,50.185966 767.920898,59.621910 
	C779.748901,71.912903 785.065369,86.675255 782.249512,104.296883 
	C780.515198,115.150146 776.091064,124.182365 768.646118,131.742508 
	C763.059814,137.415314 756.334900,141.701935 748.534180,144.039398 
	C746.724426,144.581680 745.064087,145.622391 743.667480,146.716873 
	C734.645752,147.000000 725.291565,147.000000 715.468628,147.000000 
M714.096741,74.650566 
	C706.711914,82.620552 703.591003,91.686798 705.991394,102.632202 
	C709.913269,120.515610 727.999939,125.586716 740.330933,118.808037 
	C749.776001,113.615799 753.158875,104.560364 752.805908,94.444183 
	C752.550171,87.117088 750.041321,79.925926 744.048523,75.110008 
	C733.944580,66.990265 726.288269,66.939461 714.096741,74.650566 
z"/>
<path fill="#F17356" opacity="1.000000" stroke="none" 
	d="
M425.129059,13.951821 
	C429.021271,16.727272 432.913452,19.502720 437.068848,22.783768 
	C437.489227,23.565044 437.692261,23.801363 437.941132,23.998323 
	C437.941132,23.998323 438.056763,24.419622 438.055389,25.066116 
	C437.925110,27.797909 437.796173,29.883209 437.627686,32.608875 
	C432.164551,31.480835 427.000641,31.080408 422.398346,29.260141 
	C418.499390,27.718063 416.801941,28.813595 414.696960,31.761625 
	C413.198120,33.860779 410.874359,35.370907 408.918732,37.143913 
	C408.918732,37.143917 408.927948,37.069916 408.730530,36.885212 
	C407.977448,36.483261 407.421783,36.266010 406.866150,36.048759 
	C396.746552,31.959320 386.365082,31.943129 376.283661,35.465370 
	C366.337738,38.940285 359.330353,46.245972 355.093231,55.843430 
	C348.735931,70.243233 349.073669,84.821541 356.093292,98.796562 
	C361.734344,110.027016 370.984344,117.094231 383.955017,117.872948 
	C389.343475,118.196457 394.791290,117.530334 400.575378,117.612579 
	C400.931366,120.028793 401.130402,122.172554 400.868683,124.258514 
	C400.470093,127.435524 400.549500,131.057571 398.991455,133.617584 
	C396.377838,137.912079 394.568542,141.981171 396.000000,147.000000 
	C388.312408,147.000000 380.624847,147.000000 372.468628,147.000000 
	C370.772644,146.043076 369.680542,144.565369 368.297913,144.206207 
	C341.430695,137.227219 325.508881,119.018173 319.395233,93.064453 
	C315.307526,75.711357 317.190430,57.985184 325.981537,41.572376 
	C333.314697,27.881454 343.842834,17.496990 357.788513,11.183348 
	C373.279633,4.170052 389.667633,2.763437 406.685547,7.370981 
	C407.535217,13.422421 412.173340,14.819790 416.097351,16.810844 
	C419.913757,18.747295 423.180542,18.256159 425.129059,13.951821 
z"/>
<path fill="#F17356" opacity="1.000000" stroke="none" 
	d="
M473.468628,147.000000 
	C471.397308,145.680954 469.982452,143.951111 468.158112,143.116714 
	C461.622986,140.127747 456.612701,135.538986 453.618805,129.110382 
	C452.406006,126.506142 452.331085,123.311882 452.041412,120.356407 
	C451.799103,117.884262 452.230865,115.343407 451.961121,112.877068 
	C450.843933,102.663589 456.188354,95.976997 464.139587,91.013885 
	C471.048279,86.701538 478.831940,84.988876 486.981049,85.001984 
	C495.489288,85.015671 503.997620,85.005035 512.491760,85.005035 
	C512.877930,73.239990 506.903503,69.466362 495.915527,68.179413 
	C488.177094,67.273048 480.915436,70.317039 474.003204,73.940521 
	C468.035400,77.068924 461.664886,75.054932 458.117096,69.373421 
	C453.970520,62.732899 456.447601,55.041725 464.348663,52.385689 
	C472.985138,49.482426 481.848145,45.972763 490.763184,45.485516 
	C503.388702,44.795475 516.679626,44.812031 527.537903,53.227985 
	C534.435669,58.574268 539.429626,65.534142 540.996948,74.470093 
	C541.218933,75.735916 541.627747,76.968979 541.680481,78.966873 
	C541.325928,97.910271 541.234070,116.103989 541.185730,134.297806 
	C541.184082,134.904480 541.621948,135.512329 541.854919,136.119629 
	C539.017578,139.585846 536.180298,143.052078 533.671509,146.759155 
	C530.307068,147.000000 526.614197,147.000000 522.786621,146.755219 
	C518.439514,142.821777 513.394531,139.626709 514.811462,133.886429 
	C511.584839,136.484024 508.033173,139.391632 504.426086,142.228821 
	C502.329956,143.877563 500.144989,145.413361 498.000000,147.000000 
	C489.979095,147.000000 481.958191,147.000000 473.468628,147.000000 
M480.903107,117.454636 
	C482.920380,123.971779 489.155121,127.202827 497.335327,125.989441 
	C506.015472,124.701897 515.051208,116.942574 512.892517,104.901367 
	C512.692566,103.786026 510.909271,102.194267 509.790070,102.133484 
	C504.488251,101.845497 499.078156,101.417824 493.862823,102.150963 
	C485.155670,103.374939 479.232941,107.050842 480.903107,117.454636 
z"/>
<path fill="#F3775A" opacity="1.000000" stroke="none" 
	d="
M396.458069,147.000000 
	C394.568542,141.981171 396.377838,137.912079 398.991455,133.617584 
	C400.549500,131.057571 400.470093,127.435524 400.868683,124.258514 
	C401.130402,122.172554 400.931366,120.028793 400.971130,117.538078 
	C406.110260,114.512009 411.399323,112.152275 416.272614,109.123528 
	C421.211090,106.054260 428.508820,105.911049 433.550385,109.168907 
	C438.843719,112.589439 442.337646,119.444359 439.638855,124.925346 
	C437.483978,129.301712 433.211914,133.203232 428.964172,135.841919 
	C423.282806,139.371140 416.708191,141.456833 410.537415,144.207932 
	C409.093964,144.851471 407.731995,145.677887 406.666260,146.710083 
	C403.638702,147.000000 400.277435,147.000000 396.458069,147.000000 
z"/>
<path fill="#F17457" opacity="1.000000" stroke="none" 
	d="
M591.244019,146.193878 
	C592.298706,145.471390 593.353455,144.748917 593.511536,144.640656 
	C592.262939,137.838882 590.657349,131.761230 590.242310,125.603355 
	C590.059631,122.893288 592.298828,120.019997 594.143005,117.108780 
	C600.932190,121.338203 607.706482,122.187943 614.891968,120.955399 
	C615.755493,125.217331 616.918945,129.446976 617.382385,133.751984 
	C617.719666,136.884171 617.132263,140.115891 616.791748,144.042267 
	C615.750977,145.520859 614.875488,146.260437 614.000000,147.000000 
	C606.645752,147.000000 599.291504,147.000000 591.534790,146.800049 
	C591.132385,146.600082 591.244019,146.193878 591.244019,146.193878 
z"/>
<path fill="#000000" opacity="1.000000" stroke="none" 
	d="
M614.468628,147.000000 
	C614.875488,146.260437 615.750977,145.520859 616.830933,144.447021 
	C622.333679,140.821320 627.632019,137.529877 632.891724,134.262436 
	C633.946533,139.293045 637.445129,143.569733 642.333252,146.749115 
	C632.979126,147.000000 623.958191,147.000000 614.468628,147.000000 
z"/>
<path fill="#000000" opacity="1.000000" stroke="none" 
	d="
M498.468628,147.000000 
	C500.144989,145.413361 502.329956,143.877563 504.426086,142.228821 
	C508.033173,139.391632 511.584839,136.484024 514.811462,133.886429 
	C513.394531,139.626709 518.439514,142.821777 522.326050,146.755219 
	C514.312439,147.000000 506.624847,147.000000 498.468628,147.000000 
z"/>
<path fill="#F17154" opacity="1.000000" stroke="none" 
	d="
M591.163330,146.119644 
	C591.244019,146.193878 591.132385,146.600082 591.066162,146.800049 
	C591.000000,147.000000 590.500000,147.000000 590.250000,147.000000 
	C590.352966,146.978577 590.705933,146.957153 591.014587,146.411514 
	C590.970276,145.887314 590.923584,145.894287 590.923584,145.894287 
	C590.923584,145.894287 591.082581,146.045410 591.163330,146.119644 
z"/>
<path fill="#F27455" opacity="1.000000" stroke="none" 
	d="
M58.743706,127.338760 
	C45.423252,121.984589 32.989719,115.963348 22.525728,106.363731 
	C7.061625,92.177017 1.530910,74.983269 6.773386,54.681316 
	C10.440384,40.480541 17.985859,29.112410 31.806833,22.517300 
	C44.974117,16.234123 57.985405,16.716480 71.367058,21.687881 
	C84.667618,26.629156 95.393242,35.037697 105.434402,44.799305 
	C115.829926,54.905388 125.160988,65.771523 132.690323,78.162376 
	C133.746552,79.900581 134.673080,81.717583 135.806595,83.763313 
	C136.989273,81.918114 138.095261,79.943604 139.435394,78.143417 
	C146.440506,68.733482 153.103897,59.029987 160.648468,50.070534 
	C170.521606,38.345833 182.407562,29.010553 196.598038,22.726347 
	C208.028885,17.664244 220.143234,15.926002 231.779602,19.365673 
	C244.189514,23.034008 253.883102,31.024538 260.409821,43.187775 
	C264.636566,51.064816 267.294006,59.122448 267.724304,67.549599 
	C268.271057,78.256882 265.019104,88.538811 258.295074,97.146667 
	C241.759125,118.315392 217.923569,126.539597 193.231415,132.924911 
	C179.710510,136.421417 165.923950,138.407181 151.891754,137.959702 
	C149.973175,137.898529 148.061371,137.419891 146.161194,137.057205 
	C144.844147,136.805817 128.286591,136.951691 126.885338,136.968170 
	C118.711494,137.064240 110.531616,137.207367 102.362236,137.000519 
	C87.348412,136.620361 73.250465,131.836746 58.743706,127.338760 
M39.012115,75.031693 
	C42.086002,78.361229 44.770145,82.195526 48.306492,84.926140 
	C59.133545,93.286346 71.876129,97.670349 84.961624,100.904770 
	C93.258659,102.955597 101.754677,104.201347 110.161461,105.808151 
	C110.415894,105.275894 110.670326,104.743645 110.924759,104.211388 
	C105.173637,96.236771 99.675751,88.063309 93.608788,80.336700 
	C85.605919,70.144615 76.519943,60.891724 65.280197,54.282669 
	C61.633854,52.138596 56.882694,50.833530 52.665531,50.902267 
	C41.629555,51.082146 35.435448,64.310120 39.012115,75.031693 
M199.022827,59.461021 
	C183.290573,72.258316 171.305405,88.130775 160.229141,106.492073 
	C169.001724,104.480392 176.607178,102.484993 184.313721,101.021957 
	C199.891006,98.064735 214.016006,91.843544 226.766815,82.546005 
	C232.719925,78.205170 237.107224,68.280792 231.496292,58.867527 
	C227.207443,51.672279 220.671005,48.832672 211.799774,52.173725 
	C207.483734,53.799232 203.637329,56.671783 199.022827,59.461021 
z"/>
<path fill="#F17457" opacity="1.000000" stroke="none" 
	d="
M556.067993,90.421173 
	C556.757751,91.119171 557.359131,92.224365 557.986877,93.378151 
	C562.862305,89.581245 569.818848,90.081055 573.662231,94.261017 
	C577.622253,98.567856 577.338562,103.431656 572.936584,108.589943 
	C571.879089,109.829140 570.480225,111.208931 570.283752,112.665131 
	C569.808472,116.186890 568.032959,117.913589 564.708374,118.754776 
	C563.662598,119.019379 562.912109,120.451530 561.949829,121.710045 
	C559.580139,113.704521 557.140747,105.373558 555.108032,96.944542 
	C554.659363,95.084084 555.651123,92.876251 556.067993,90.421173 
z"/>
<path fill="#F2775A" opacity="1.000000" stroke="none" 
	d="
M409.084961,37.448715 
	C410.874359,35.370907 413.198120,33.860779 414.696960,31.761625 
	C416.801941,28.813595 418.499390,27.718063 422.398346,29.260141 
	C427.000641,31.080408 432.164551,31.480835 437.627686,32.608875 
	C437.796173,29.883209 437.925110,27.797909 438.089783,25.281830 
	C441.066010,31.471849 439.860016,37.271305 434.051575,41.376759 
	C428.297974,45.443493 422.053772,47.130749 414.903168,41.493153 
	C413.135315,40.099335 411.141266,38.992352 409.084961,37.448715 
z"/>
<path fill="#F2775A" opacity="1.000000" stroke="none" 
	d="
M424.960724,13.627536 
	C423.180542,18.256159 419.913757,18.747295 416.097351,16.810844 
	C412.173340,14.819790 407.535217,13.422421 407.011932,7.535697 
	C412.932190,9.213353 418.862305,11.258303 424.960724,13.627536 
z"/>
<path fill="#F28669" opacity="1.000000" stroke="none" 
	d="
M660.916748,135.592712 
	C660.558289,134.402954 660.031555,132.793320 660.028931,131.182816 
	C659.984802,103.806915 659.996094,76.430901 660.038879,49.054977 
	C660.041199,47.591873 660.430054,46.129375 661.050110,44.308315 
	C661.461182,43.950035 661.838440,43.949726 661.838440,43.949726 
	C661.560913,69.523491 661.276001,95.097176 661.012329,120.671089 
	C660.962524,125.504425 660.996948,130.338638 660.916748,135.592712 
z"/>
<path fill="#F49E87" opacity="1.000000" stroke="none" 
	d="
M541.930237,135.644073 
	C541.621948,135.512329 541.184082,134.904480 541.185730,134.297806 
	C541.234070,116.103989 541.325928,97.910271 541.625854,79.364700 
	C541.895813,97.731407 541.950684,116.449974 541.930237,135.644073 
z"/>
<path fill="#F5AD93" opacity="1.000000" stroke="none" 
	d="
M633.165833,14.911977 
	C633.066589,28.956224 632.967407,43.000473 632.825073,57.507603 
	C632.531006,57.597672 632.060242,57.224422 632.060974,56.852108 
	C632.089722,42.330284 632.161438,27.808552 632.613647,13.058182 
	C633.031067,13.043069 633.062317,13.256587 633.124573,13.988935 
	C633.155640,14.507766 633.165833,14.911977 633.165833,14.911977 
z"/>
<path fill="#FFEFE0" opacity="1.000000" stroke="none" 
	d="
M661.913574,43.489136 
	C661.838440,43.949726 661.461182,43.950035 661.272522,43.955833 
	C661.036072,34.590664 660.988281,25.219700 660.994751,15.377209 
	C661.366150,16.885387 661.928223,18.861591 661.956604,20.845421 
	C662.062256,28.238441 661.992615,35.633961 661.913574,43.489136 
z"/>
<path fill="#F17457" opacity="1.000000" stroke="none" 
	d="
M587.082642,144.422852 
	C587.768372,144.318283 588.621277,144.519943 589.743530,144.924927 
	C589.091797,144.995209 588.170898,144.862152 587.082642,144.422852 
z"/>
<path fill="#F17457" opacity="1.000000" stroke="none" 
	d="
M584.032104,143.376251 
	C584.731934,143.272964 585.596619,143.487091 586.737305,143.898773 
	C586.074585,143.962082 585.135681,143.827881 584.032104,143.376251 
z"/>
<path fill="#F17457" opacity="1.000000" stroke="none" 
	d="
M565.904053,128.411728 
	C566.176453,128.586182 566.470581,129.066757 566.797485,129.831055 
	C566.528809,129.649139 566.227295,129.183502 565.904053,128.411728 
z"/>
<path fill="#F17457" opacity="1.000000" stroke="none" 
	d="
M577.026123,139.329163 
	C577.438354,139.267029 577.978088,139.495590 578.732300,139.927216 
	C578.349060,139.960129 577.751282,139.789993 577.026123,139.329163 
z"/>
<path fill="#F17457" opacity="1.000000" stroke="none" 
	d="
M574.007568,137.343979 
	C574.421997,137.276581 574.971802,137.500107 575.742920,137.926315 
	C575.357117,137.964294 574.750122,137.799591 574.007568,137.343979 
z"/>
<path fill="#F17457" opacity="1.000000" stroke="none" 
	d="
M563.916077,125.400391 
	C564.193848,125.574051 564.502930,126.063225 564.871826,126.840591 
	C564.603577,126.657814 564.275452,126.186859 563.916077,125.400391 
z"/>
<path fill="#F17457" opacity="1.000000" stroke="none" 
	d="
M561.910278,122.330132 
	C562.195312,122.513161 562.491882,123.023651 562.831665,123.826309 
	C562.557190,123.631523 562.239502,123.144562 561.910278,122.330132 
z"/>
<path fill="#F2775A" opacity="1.000000" stroke="none" 
	d="
M407.004578,36.343582 
	C407.421783,36.266010 407.977448,36.483261 408.767517,36.889919 
	C408.382294,36.932358 407.762634,36.785381 407.004578,36.343582 
z"/>
<path fill="#F28669" opacity="1.000000" stroke="none" 
	d="
M660.907959,13.825418 
	C660.673767,13.845922 660.471619,13.572523 660.145630,13.075865 
	C660.327820,13.078910 660.633850,13.305213 660.907959,13.825418 
z"/>
<path fill="#F2775A" opacity="1.000000" stroke="none" 
	d="
M437.979675,23.724167 
	C437.692261,23.801363 437.489227,23.565044 437.235474,23.077755 
	C437.432007,23.060762 437.725098,23.255386 437.979675,23.724167 
z"/>
<path fill="#F0654A" opacity="1.000000" stroke="none" 
	d="
M632.969055,58.365189 
	C633.174194,58.337143 633.218506,58.516808 633.014343,58.803791 
	C632.930847,58.873768 632.973267,58.535561 632.969055,58.365189 
z"/>
<path fill="#F17457" opacity="1.000000" stroke="none" 
	d="
M590.765564,145.734650 
	C590.923584,145.894287 590.970276,145.887314 590.996704,145.881409 
	C590.771118,145.816864 590.519165,145.758224 590.095093,145.351120 
	C590.156616,145.186905 590.384827,145.377686 590.765564,145.734650 
z"/>
<path fill="#000000" opacity="1.000000" stroke="none" 
	d="
M615.076416,120.627213 
	C607.706482,122.187943 600.932190,121.338203 594.480103,116.976639 
	C591.797729,113.190529 589.482788,109.424522 587.091248,104.973618 
	C586.717102,103.493980 586.419617,102.699226 586.122070,101.904472 
	C586.122131,101.904465 586.105225,101.878853 586.066040,101.465103 
	C585.968628,99.699303 585.910339,98.347244 585.852051,96.995186 
	C585.832275,87.409645 588.414307,78.793571 596.684753,73.214409 
	C605.799133,67.065933 619.833557,67.875694 627.265503,78.999184 
	C635.790649,91.758987 633.542664,110.252350 619.748230,118.714874 
	C618.426147,119.525963 616.764771,119.784180 615.076416,120.627213 
z"/>
<path fill="#F17457" opacity="1.000000" stroke="none" 
	d="
M585.540100,96.933685 
	C585.910339,98.347244 585.968628,99.699303 586.053650,101.456100 
	C584.984314,102.187210 583.888245,102.513588 582.792175,102.839981 
	C582.409363,101.506866 581.420044,99.938583 581.819336,98.908691 
	C582.196655,97.935593 584.033386,97.528320 585.540100,96.933685 
z"/>
<path fill="#F17457" opacity="1.000000" stroke="none" 
	d="
M586.110840,102.228920 
	C586.419617,102.699226 586.717102,103.493980 586.934326,104.637680 
	C586.602539,104.175552 586.351074,103.364456 586.110840,102.228920 
z"/>
<path fill="#F0654A" opacity="1.000000" stroke="none" 
	d="
M633.225952,14.819450 
	C633.165833,14.911977 633.155640,14.507766 633.181458,14.307579 
	C633.344421,14.303953 633.370667,14.510463 633.225952,14.819450 
z"/>
<path fill="#000000" opacity="1.000000" stroke="none" 
	d="
M714.309631,74.341904 
	C726.288269,66.939461 733.944580,66.990265 744.048523,75.110008 
	C750.041321,79.925926 752.550171,87.117088 752.805908,94.444183 
	C753.158875,104.560364 749.776001,113.615799 740.330933,118.808037 
	C727.999939,125.586716 709.913269,120.515610 705.991394,102.632202 
	C703.591003,91.686798 706.711914,82.620552 714.309631,74.341904 
z"/>
<path fill="#000000" opacity="1.000000" stroke="none" 
	d="
M480.637665,117.151276 
	C479.232941,107.050842 485.155670,103.374939 493.862823,102.150963 
	C499.078156,101.417824 504.488251,101.845497 509.790070,102.133484 
	C510.909271,102.194267 512.692566,103.786026 512.892517,104.901367 
	C515.051208,116.942574 506.015472,124.701897 497.335327,125.989441 
	C489.155121,127.202827 482.920380,123.971779 480.637665,117.151276 
z"/>
<path fill="#000000" opacity="1.000000" stroke="none" 
	d="
M38.889904,74.642509 
	C35.435448,64.310120 41.629555,51.082146 52.665531,50.902267 
	C56.882694,50.833530 61.633854,52.138596 65.280197,54.282669 
	C76.519943,60.891724 85.605919,70.144615 93.608788,80.336700 
	C99.675751,88.063309 105.173637,96.236771 110.924759,104.211388 
	C110.670326,104.743645 110.415894,105.275894 110.161461,105.808151 
	C101.754677,104.201347 93.258659,102.955597 84.961624,100.904770 
	C71.876129,97.670349 59.133545,93.286346 48.306492,84.926140 
	C44.770145,82.195526 42.086002,78.361229 38.889904,74.642509 
z"/>
<path fill="#000000" opacity="1.000000" stroke="none" 
	d="
M199.300583,59.220417 
	C203.637329,56.671783 207.483734,53.799232 211.799774,52.173725 
	C220.671005,48.832672 227.207443,51.672279 231.496292,58.867527 
	C237.107224,68.280792 232.719925,78.205170 226.766815,82.546005 
	C214.016006,91.843544 199.891006,98.064735 184.313721,101.021957 
	C176.607178,102.484993 169.001724,104.480392 160.229141,106.492073 
	C171.305405,88.130775 183.290573,72.258316 199.300583,59.220417 
z"/>
</svg>